<svg width="697" height="801" viewBox="0 0 697 801" fill="none" xmlns="http://www.w3.org/2000/svg">
<path d="M396.239 21.0831C407.076 24.5179 413.281 23.3492 424.418 24.917C796.58 77.2661 782.812 734.644 412.752 795.359C106.169 845.656 -47.1651 550.189 12.8247 284.068C38.2016 171.474 116.191 57.6405 234.898 30.846C257.716 25.7009 293.444 26.1712 312.773 15.8382C316.934 13.6148 320.522 8.71202 325.712 5.9328C357.151 -10.9135 369.532 12.6029 396.253 21.0831H396.239ZM597.396 648.032C723.423 479.54 697.731 147.388 484.908 58.6667C441.889 40.7372 374.607 26.385 348.802 77.4514C346.128 78.107 335.906 61.4887 332.417 58.1821C303.795 31.0313 249.195 43.6162 216.227 56.4291C-34.1978 153.816 -40.5742 606.044 192.265 726.663C226.735 744.521 304.453 768.08 338.694 745.675C341.353 743.936 339.423 741.685 344.47 741.457C351.804 741.129 366.816 750.222 376.709 752.303C402.687 757.79 440.902 751.447 465.693 744.336C512.587 730.867 567.615 687.867 597.41 648.032H597.396Z" fill="#676831"/>
<path d="M597.396 648.032C567.601 687.867 512.572 730.867 465.679 744.335C440.888 751.447 402.672 757.79 376.695 752.303C366.816 750.222 351.79 741.114 344.455 741.456C339.408 741.684 341.324 743.936 338.679 745.675C304.453 768.08 226.72 744.521 192.251 726.663C-40.5742 606.044 -34.1978 153.816 216.241 56.4291C249.209 43.6162 303.809 31.0313 332.432 58.1821C335.92 61.4887 346.142 78.107 348.816 77.4513C374.607 26.385 441.903 40.7372 484.922 58.6667C697.746 147.388 723.437 479.54 597.41 648.032H597.396ZM349.531 714.519C368.074 669.895 381.298 623.361 393.465 576.585C427.22 446.745 434.097 360.946 404.874 228.256C399.069 201.932 376.909 114.493 359.61 98.0746C344.184 83.4374 337.035 97.7183 330.716 110.702C292.915 188.264 265.894 340.351 270.941 425.908C275.287 499.693 306.526 631.286 338.322 697.944C339.537 700.481 346.471 716.8 349.531 714.534V714.519ZM268.982 185.912C259.232 187.466 269.254 218.65 280.148 218.522C290.456 211.78 276.888 184.644 268.982 185.912ZM432.353 185.898C424.604 180.482 403.816 210.483 415.325 217.937C426.477 220.403 437.771 189.689 432.353 185.898ZM260.919 252.756C261.519 238.532 247.394 218.379 231.667 221.443C219.815 223.752 231.867 238.689 237.343 242.779C240.174 244.903 259.16 254.609 260.919 252.756ZM432.481 251.331C442.26 252.813 477.073 236.038 466.922 223.41C458.559 213.006 428.006 238.218 432.481 251.331ZM206.605 267.023C200.142 273.45 234.784 300.772 248.48 296.668C262.177 292.563 242.747 277.47 237.086 274.405C228.05 269.502 216.784 267.735 206.605 267.037V267.023ZM491.084 267.023C477.516 266.395 462.719 268.405 451.811 277.028C447.407 280.505 439.959 287.304 443.804 293.133C450.91 303.894 490.512 279.265 491.084 267.023ZM451.367 334.28C445.377 344.541 467.78 346.907 473.999 346.195C479.675 345.539 493.629 337.358 498.719 333.752C501.778 331.586 512.229 324.289 511.1 320.498C509.899 318.388 508.255 318.488 506.182 318.246C492.399 316.649 477.574 318.089 465.336 324.702C463.434 325.728 451.796 333.538 451.382 334.28H451.367ZM243.576 343.8C248.023 336.589 225.791 326.655 220.587 325.044C212.566 322.578 182.329 317.391 185.717 331.23C186.832 335.762 207.491 344.328 212.638 345.796C224.19 349.088 232.582 349.316 243.576 343.8ZM470.096 380.073C468.152 381.284 459.145 390.648 459.674 393.057C470.525 400.183 484.565 400.667 497.132 399.157C502.936 398.458 530.372 393.256 517.376 384.035C509.156 378.206 478.46 374.828 470.096 380.058V380.073ZM197.698 381.427C189.82 382.381 160.326 390.306 181.085 397.19C195.282 401.893 220.63 400.924 233.712 393.042C235.47 387.427 220.644 382.396 216.67 381.669C210.565 380.557 203.845 380.685 197.698 381.427ZM470.797 432.707C440.387 435.315 466.694 454.983 484.593 456.637C488.983 457.036 511.486 457.463 512.53 452.988C506.067 441.557 483.278 431.638 470.797 432.707ZM236.557 435.258C228.365 433.476 219.157 432.906 210.822 434.403C205.547 435.358 181.228 445.121 182.543 451.377C183.672 454.071 187.733 456.009 190.492 456.266C194.595 456.637 210.794 455.311 215.254 454.499C224.218 452.888 237.843 445.947 236.571 435.258H236.557ZM200.957 512.064C211.494 514.9 241.303 504.952 245.893 495.018C248.952 488.391 243.462 483.973 237.2 483.73C228.036 483.374 195.639 504.582 200.943 512.078H200.957V512.064ZM484.193 513.304C484.651 513.618 488.496 511.48 488.997 510.724C495.073 501.375 463.405 484.828 455.656 483.973C436.07 481.821 441.817 495.261 453.455 501.902C464.035 507.945 472.47 507.888 482.964 510.739C484.165 511.066 483.936 513.133 484.193 513.304ZM467.795 549.605C467.409 549.12 460.889 542.521 460.36 542.08C456.643 539.015 435.555 527.656 432.481 530.678C431.48 548.992 450.51 561.89 467.294 561.848C471.24 560.522 469.939 552.256 467.795 549.605ZM225.176 560.594C236.685 562.09 254.228 554.679 259.346 544.047C261.748 539.058 265.05 531.034 256.587 532.687C243.905 535.167 224.819 545.899 225.176 560.594ZM282.364 571.995C272.027 568.974 247.894 594.928 258.059 601.298C272.242 600.557 284.094 586.205 282.364 571.995ZM412.466 572.01C412.223 584.452 422.402 599.46 435.326 601.313C445.62 585.421 427.291 573.52 412.466 572.01Z" fill="#8CAB4D"/>
<path d="M349.531 714.519C346.471 716.786 339.523 700.481 338.322 697.93C306.526 631.271 275.287 499.679 270.941 425.894C265.894 340.323 292.929 188.235 330.716 110.688C337.035 97.7183 344.184 83.4231 359.61 98.0603C376.909 114.479 399.069 201.918 404.874 228.242C434.097 360.932 427.22 446.745 393.465 576.571C381.298 623.347 368.074 669.881 349.531 714.505L349.531 714.519ZM353.82 594.799C372.863 512.577 381.799 427.661 375.265 343.259C371.705 297.124 361.383 251.944 345.971 208.545C345.041 212.65 343.512 216.897 342.783 221.059C327.127 310.307 320.036 396.776 332.632 486.966C337.021 518.378 343.083 560.75 351.418 590.823C351.832 592.291 351.775 595.141 353.82 594.799Z" fill="#BCC770"/>
<path d="M451.367 334.28C451.796 333.553 463.42 325.742 465.321 324.702C477.545 318.089 492.371 316.649 506.167 318.246C508.255 318.488 509.899 318.402 511.086 320.498C512.215 324.289 501.764 331.586 498.704 333.752C493.629 337.358 479.675 345.539 473.985 346.195C467.78 346.907 445.377 344.541 451.353 334.28H451.367Z" fill="#252F22"/>
<path d="M470.096 380.073C478.46 374.842 509.155 378.22 517.376 384.049C530.372 393.27 502.936 398.472 497.132 399.171C484.565 400.682 470.54 400.197 459.674 393.071C459.145 390.648 468.152 381.298 470.096 380.087V380.073Z" fill="#252F22"/>
<path d="M243.576 343.8C232.568 349.316 224.19 349.102 212.638 345.796C207.491 344.328 186.832 335.762 185.717 331.23C182.329 317.405 212.566 322.578 220.587 325.044C225.805 326.655 248.023 336.574 243.576 343.8Z" fill="#252F22"/>
<path d="M470.797 432.707C483.278 431.638 506.067 441.557 512.53 452.988C511.486 457.463 488.983 457.036 484.593 456.637C466.679 454.983 440.373 435.315 470.797 432.707Z" fill="#252F22"/>
<path d="M197.698 381.427C203.845 380.685 210.565 380.557 216.67 381.669C220.659 382.396 235.47 387.427 233.712 393.042C220.63 400.924 195.282 401.893 181.085 397.19C160.326 390.306 189.82 382.381 197.698 381.427Z" fill="#252F22"/>
<path d="M236.557 435.258C237.829 445.947 224.204 452.874 215.24 454.499C210.779 455.297 194.581 456.622 190.478 456.266C187.718 456.024 183.658 454.071 182.529 451.377C181.213 445.121 205.532 435.358 210.808 434.403C219.143 432.906 228.365 433.476 236.542 435.258H236.557Z" fill="#252F22"/>
<path d="M491.084 267.023C490.512 279.265 450.91 303.894 443.804 293.133C439.959 287.304 447.407 280.52 451.811 277.028C462.719 268.405 477.516 266.395 491.084 267.023Z" fill="#252F22"/>
<path d="M206.605 267.023C216.77 267.721 228.05 269.502 237.086 274.391C242.747 277.47 261.819 292.663 248.48 296.653C235.141 300.644 200.142 273.45 206.605 267.008L206.605 267.023Z" fill="#252F22"/>
<path d="M200.957 512.064C195.653 504.567 228.05 483.374 237.214 483.716C243.476 483.958 248.966 488.377 245.907 495.004C241.318 504.938 211.509 514.9 200.972 512.05H200.957L200.957 512.064Z" fill="#252F22"/>
<path d="M484.193 513.304C483.936 513.133 484.165 511.066 482.964 510.739C472.47 507.874 464.035 507.945 453.455 501.902C441.817 495.246 436.055 481.806 455.656 483.973C463.405 484.828 495.059 501.375 488.997 510.724C488.496 511.494 484.651 513.618 484.193 513.304Z" fill="#252F22"/>
<path d="M467.795 549.605C469.953 552.256 471.24 560.522 467.294 561.848C450.51 561.89 431.48 548.992 432.481 530.678C435.541 527.656 456.643 539.015 460.36 542.08C460.889 542.521 467.409 549.135 467.795 549.605Z" fill="#252F22"/>
<path d="M432.481 251.331C428.006 238.204 458.559 212.992 466.922 223.41C477.073 236.038 442.26 252.813 432.481 251.331Z" fill="#252F22"/>
<path d="M260.919 252.756C259.16 254.623 240.174 244.903 237.343 242.779C231.867 238.689 219.815 223.752 231.667 221.443C247.394 218.379 261.519 238.532 260.919 252.756Z" fill="#252F22"/>
<path d="M225.176 560.594C224.819 545.914 243.905 535.167 256.587 532.687C265.05 531.034 261.748 539.058 259.346 544.047C254.228 554.665 236.685 562.076 225.176 560.594Z" fill="#252F22"/>
<path d="M258.059 601.298C272.242 600.557 284.094 586.205 282.364 571.995C272.027 568.96 247.894 594.928 258.059 601.298Z" fill="#252F22"/>
<path d="M412.466 572.01C427.291 573.535 445.606 585.435 435.326 601.313C422.402 599.46 412.223 584.452 412.466 572.01Z" fill="#252F22"/>
<path d="M432.353 185.898C437.785 189.689 426.477 220.403 415.325 217.937C403.802 210.483 424.604 180.468 432.353 185.898Z" fill="#252F22"/>
<path d="M268.982 185.912C276.874 184.658 290.456 211.794 280.148 218.522C269.268 218.65 259.246 187.466 268.982 185.912Z" fill="#252F22"/>
<path d="M353.82 594.799C351.761 595.141 351.818 592.291 351.418 590.823C343.068 560.75 337.021 518.378 332.632 486.966C320.05 396.791 327.142 310.321 342.783 221.059C343.512 216.897 345.041 212.65 345.971 208.545C361.383 251.944 371.705 297.124 375.265 343.259C381.784 427.661 372.863 512.577 353.82 594.799Z" fill="#8CAB4D"/>
</svg>
