<svg width="128" height="114" viewBox="0 0 128 114" fill="none" xmlns="http://www.w3.org/2000/svg">
<path d="M32.9455 22.4943L2.251 10.9838L33.205 0L63.8027 11.1945L32.9455 22.4943ZM34.9455 49.2205C41.5047 47.1422 48.1425 47.4 54.278 49.5085L66.1423 26.5618V14.6152L34.9455 26.0395V49.2205ZM88.7665 0.35375L88.822 92.6458L128 76.065L88.7665 0.35375ZM57.979 51.0962C65.8895 55.4822 71.8125 61.8807 72.7077 71.4987C72.0885 78.8062 69.0748 85.53 64.0618 90.6657C58.696 96.1627 51.4507 99.3158 44.1842 99.3158C36.865 99.3158 29.5813 96.6412 24.2003 91.9782C18.664 87.1807 15.5952 80.75 15.5417 73.8532C15.7892 64.0382 20.1985 56.047 30.9287 50.8245V26.0275L0 14.4295V55.4312L16.789 63.0987C13.539 68.1485 11.6525 74.1593 11.6525 80.611C11.6525 98.506 26.1592 113.013 44.0542 113.013C59.1975 113.013 71.913 102.624 75.466 88.5853L84.2698 92.6462L84.214 0.35425L57.979 51.0962Z" fill="#999999"/>
</svg>
