<svg width="115" height="115" viewBox="0 0 115 115" fill="none" xmlns="http://www.w3.org/2000/svg">
<path d="M14.6596 81.3333C14.6596 85.5768 16.3453 89.6465 19.3459 92.647C22.3464 95.6476 26.4161 97.3333 30.6596 97.3333C30.6596 100.87 32.0643 104.261 34.5648 106.761C37.0653 109.262 40.4567 110.667 43.9929 110.667C47.5291 110.667 50.9205 109.262 53.421 106.761C55.9215 104.261 57.3262 100.87 57.3262 97.3333C57.3262 100.87 58.731 104.261 61.2315 106.761C63.732 109.262 67.1233 110.667 70.6596 110.667C74.1958 110.667 77.5872 109.262 80.0877 106.761C82.5881 104.261 83.9929 100.87 83.9929 97.3333C86.8302 97.3341 89.6168 96.5804 92.0668 95.1495C94.5169 93.7185 96.5424 91.6617 97.9357 89.19C99.3289 86.7183 100.04 83.9205 99.9955 81.0835C99.9512 78.2465 99.1533 75.4723 97.6836 73.0453C101.334 72.34 104.625 70.3858 106.992 67.5182C109.358 64.6506 110.652 61.0486 110.652 57.3307C110.652 53.6127 109.358 50.0107 106.992 47.1431C104.625 44.2756 101.334 42.3214 97.6836 41.616C99.152 39.1891 99.9488 36.4155 99.9924 33.5793C100.036 30.7431 99.3248 27.9462 97.9317 25.4754C96.5386 23.0045 94.5137 20.9483 92.0644 19.5176C89.6151 18.0869 86.8294 17.3331 83.9929 17.3333C83.9929 13.7971 82.5881 10.4057 80.0877 7.90524C77.5872 5.40476 74.1958 4 70.6596 4C67.1233 4 63.732 5.40476 61.2315 7.90524C58.731 10.4057 57.3262 13.7971 57.3262 17.3333C57.3262 13.7971 55.9215 10.4057 53.421 7.90524C50.9205 5.40476 47.5291 4 43.9929 4C40.4567 4 37.0653 5.40476 34.5648 7.90524C32.0643 10.4057 30.6596 13.7971 30.6596 17.3333C27.823 17.3331 25.0374 18.0869 22.5881 19.5176C20.1388 20.9483 18.1139 23.0045 16.7208 25.4754C15.3277 27.9462 14.6165 30.7431 14.6601 33.5793C14.7037 36.4155 15.5005 39.1891 16.9689 41.616C13.3184 42.3214 10.0274 44.2756 7.6609 47.1431C5.29438 50.0107 4 53.6127 4 57.3307C4 61.0486 5.29438 64.6506 7.6609 67.5182C10.0274 70.3858 13.3184 72.34 16.9689 73.0453C15.4568 75.5453 14.6582 78.4116 14.6596 81.3333Z" stroke="#999999" stroke-width="8" stroke-linecap="round" stroke-linejoin="round"/>
<path d="M33.3262 70.6667L43.1502 41.1947C43.3968 40.4593 43.8682 39.8198 44.4979 39.3668C45.1276 38.9138 45.8838 38.67 46.6595 38.67C47.4352 38.67 48.1914 38.9138 48.8211 39.3668C49.4508 39.8198 49.9222 40.4593 50.1688 41.1947L59.9928 70.6667M75.9928 38.6667V70.6667M38.6595 60.0001H54.6595" stroke="#999999" stroke-width="8" stroke-linecap="round" stroke-linejoin="round"/>
</svg>
