<svg width="128" height="128" viewBox="0 0 128 128" fill="none" xmlns="http://www.w3.org/2000/svg">
<path d="M120 128H16C13.8333 128 11.9583 127.208 10.375 125.625C8.79167 124.042 8 122.167 8 120V112H4C2.91667 112 1.97917 111.604 1.1875 110.812C0.395833 110.021 0 109.083 0 108V84C0 82.9167 0.395833 81.9792 1.1875 81.1875C1.97917 80.3958 2.91667 80 4 80H8V48H4C2.91667 48 1.97917 47.6042 1.1875 46.8125C0.395833 46.0208 0 45.0833 0 44V20C0 18.9167 0.395833 17.9792 1.1875 17.1875C1.97917 16.3958 2.91667 16 4 16H8V8C8 5.75 8.79167 3.85417 10.375 2.3125C11.9583 0.770833 13.8333 0 16 0H120C122.167 0 124.042 0.770833 125.625 2.3125C127.208 3.85417 128 5.75 128 8V120C128 122.167 127.208 124.042 125.625 125.625C124.042 127.208 122.167 128 120 128ZM112 24C112 21.75 111.229 19.8542 109.688 18.3125C108.146 16.7708 106.25 16 104 16H32C29.75 16 27.8542 16.7917 26.3125 18.375C24.7708 19.9583 24 21.8333 24 24V104C24 106.167 24.7708 108.042 26.3125 109.625C27.8542 111.208 29.75 112 32 112H104C106.167 112 108.042 111.208 109.625 109.625C111.208 108.042 112 106.167 112 104V24ZM96 104H40C37.75 104 35.8542 103.208 34.3125 101.625C32.7708 100.042 32 98.1667 32 96V32C32 29.8333 32.7708 27.9583 34.3125 26.375C35.8542 24.7917 37.75 24 40 24H96C98.1667 24 100.042 24.7917 101.625 26.375C103.208 27.9583 104 29.8333 104 32V96C104 98.25 103.208 100.146 101.625 101.688C100.042 103.229 98.1667 104 96 104ZM72 48C67.5833 48 63.8125 49.5625 60.6875 52.6875C57.5625 55.8125 56 59.5833 56 64C56 68.4167 57.5625 72.1875 60.6875 75.3125C63.8125 78.4375 67.5833 80 72 80C76.4167 80 80.1875 78.4375 83.3125 75.3125C86.4375 72.1875 88 68.4167 88 64C88 59.5833 86.4375 55.8125 83.3125 52.6875C80.1875 49.5625 76.4167 48 72 48ZM71.9375 72C69.7292 72 67.8542 71.2292 66.3125 69.6875C64.7708 68.1458 64 66.2708 64 64.0625C64 61.8542 64.7708 59.9583 66.3125 58.375C67.8542 56.7917 69.7292 56 71.9375 56C74.1458 56 76.0417 56.7708 77.625 58.3125C79.2083 59.8542 80 61.75 80 64C80 66.25 79.2083 68.1458 77.625 69.6875C76.0417 71.2292 74.1458 72 71.9375 72Z" fill="#999999"/>
</svg>
