<svg width="112" height="96" viewBox="0 0 112 96" fill="none" xmlns="http://www.w3.org/2000/svg">
<path d="M64 0C51.2696 0 39.0606 5.05713 30.0589 14.0589C21.0571 23.0606 16 35.2696 16 48H0L21.3333 69.3333L42.6667 48H26.6667C26.6667 27.36 43.36 10.6667 64 10.6667C84.64 10.6667 101.333 27.36 101.333 48C101.333 68.64 84.64 85.3333 64 85.3333C53.7067 85.3333 44.3733 81.12 37.6533 74.3467L30.08 81.92C34.5242 86.3904 39.8098 89.9362 45.6317 92.3528C51.4536 94.7695 57.6965 96.009 64 96C76.7304 96 88.9394 90.9429 97.9411 81.9411C106.943 72.9394 112 60.7304 112 48C112 35.2696 106.943 23.0606 97.9411 14.0589C88.9394 5.05713 76.7304 1.89698e-07 64 0ZM58.6667 26.6667V53.3333L81.3333 66.7733L85.44 59.9467L66.6667 48.8V26.6667H58.6667Z" fill="#999999"/>
</svg>
