<svg width="86" height="96" viewBox="0 0 86 96" fill="none" xmlns="http://www.w3.org/2000/svg">
<path d="M42.6667 0C19.0933 0 0 9.54667 0 21.3333C0 33.12 19.0933 42.6667 42.6667 42.6667C66.24 42.6667 85.3333 33.12 85.3333 21.3333C85.3333 9.54667 66.24 0 42.6667 0ZM0 32V48C0 59.7867 19.0933 69.3333 42.6667 69.3333C66.24 69.3333 85.3333 59.7867 85.3333 48V32C85.3333 43.7867 66.24 53.3333 42.6667 53.3333C19.0933 53.3333 0 43.7867 0 32ZM0 58.6667V74.6667C0 86.4533 19.0933 96 42.6667 96C66.24 96 85.3333 86.4533 85.3333 74.6667V58.6667C85.3333 70.4533 66.24 80 42.6667 80C19.0933 80 0 70.4533 0 58.6667Z" fill="#999999"/>
</svg>
