<svg width="102" height="102" viewBox="0 0 102 102" fill="none" xmlns="http://www.w3.org/2000/svg">
<path d="M20.832 3.25901C20.818 2.63249 20.6277 2.02261 20.2829 1.49932C19.9381 0.976031 19.4528 0.560538 18.8826 0.300507C18.3125 0.0404763 17.6805 -0.0535592 17.0593 0.0291893C16.4382 0.111938 15.8529 0.368118 15.3707 0.76834C8.976 6.07501 5.08 10.1337 2.82667 13.8617C0.448 17.779 0 21.147 0 24.659C0 28.5488 1.54523 32.2794 4.29577 35.0299C7.0463 37.7804 10.7768 39.3257 14.6667 39.3257C18.5565 39.3257 22.287 37.7804 25.0376 35.0299C27.7881 32.2794 29.3333 28.5488 29.3333 24.659C29.3333 19.8723 26.96 16.643 25.0933 14.107L24.552 13.3657C22.6213 10.6883 20.9387 8.01367 20.832 3.25901ZM31.7707 14.4537C35.1749 12.8355 38.8974 11.9973 42.6667 12.0003C55.7573 12.0003 66.528 21.9283 67.8613 34.667H56.6667C52.2464 34.667 48.0072 36.423 44.8816 39.5486C41.7559 42.6742 40 46.9134 40 51.3337V62.5283C38.1277 62.3343 36.2832 61.93 34.5013 61.323C34.3703 63.5964 34.1854 65.8664 33.9467 68.131C35.8987 68.6857 37.9164 69.0501 40 69.2243V79.3337C40 83.754 41.7559 87.9932 44.8816 91.1188C48.0072 94.2444 52.2464 96.0003 56.6667 96.0003H84.6667C89.0869 96.0003 93.3262 94.2444 96.4518 91.1188C99.5774 87.9932 101.333 83.754 101.333 79.3337V51.3337C101.333 46.9134 99.5774 42.6742 96.4518 39.5486C93.3262 36.423 89.0869 34.667 84.6667 34.667H74.5573C73.2027 18.2403 59.4427 5.33367 42.664 5.33367C37.543 5.32603 32.4956 6.55266 27.9493 8.90967C28.2293 9.34167 28.5387 9.78167 28.8773 10.251L29.384 10.9363C30.0507 11.8297 30.928 13.0057 31.7733 14.4563M74.416 41.3337H84.664C87.3162 41.3337 89.8597 42.3872 91.7351 44.2626C93.6104 46.138 94.664 48.6815 94.664 51.3337V79.3337C94.664 81.9858 93.6104 84.5294 91.7351 86.4047C89.8597 88.2801 87.3162 89.3337 84.664 89.3337H56.664C54.0118 89.3337 51.4683 88.2801 49.5929 86.4047C47.7176 84.5294 46.664 81.9858 46.664 79.3337V69.0857C53.7136 68.1953 60.2667 64.9851 65.2911 59.9607C70.3155 54.9363 73.5257 48.3833 74.416 41.3337ZM67.6827 41.3337C66.8365 46.6032 64.3495 51.4715 60.5756 55.2453C56.8018 59.0192 51.9335 61.5062 46.664 62.3523V51.3337C46.664 48.6815 47.7176 46.138 49.5929 44.2626C51.4683 42.3872 54.0118 41.3337 56.664 41.3337H67.6827ZM2.216 41.779C2.37067 41.4181 2.53778 41.059 2.71733 40.7017C6.16768 43.2786 10.3602 44.668 14.6667 44.6617C18.9768 44.6674 23.1725 43.2751 26.624 40.6937C26.8053 41.0528 26.9742 41.4163 27.1307 41.7843C28.9973 46.1817 29.3333 51.5577 29.3333 55.859C29.3333 62.899 28.2453 73.6723 26.2507 82.739C25.256 87.2537 23.9973 91.539 22.4373 94.7737C21.664 96.3817 20.728 97.9123 19.576 99.083C18.416 100.262 16.7707 101.334 14.6773 101.334C12.584 101.334 10.9387 100.264 9.77867 99.0857C8.62667 97.9123 7.69067 96.3843 6.91467 94.7763C5.352 91.5417 4.088 87.2563 3.09333 82.7417C1.09333 73.675 0 62.9017 0 55.859C0 51.555 0.341333 46.179 2.216 41.779Z" fill="#999999"/>
</svg>
