<svg width="129" height="112" viewBox="0 0 129 112" fill="none" xmlns="http://www.w3.org/2000/svg">
<path fill-rule="evenodd" clip-rule="evenodd" d="M32.013 12L12.013 60H116.013L96.013 12H32.013ZM0.0129724 78V60.552C-0.0670276 58.856 0.220972 57.104 0.932972 55.384L21.965 4.92C22.5729 3.46276 23.5984 2.218 24.9124 1.34249C26.2263 0.466975 27.77 -0.000131697 29.349 2.78523e-08H98.677C100.256 -0.000131697 101.8 0.466975 103.114 1.34249C104.428 2.218 105.453 3.46276 106.061 4.92L127.093 55.384C127.853 57.2078 128.151 59.1911 127.96 61.1578C127.77 63.1245 127.096 65.0136 126 66.6575C124.904 68.3014 123.419 69.6492 121.677 70.5812C119.934 71.5132 117.989 72.0005 116.013 72H12.013V78C12.013 79.104 12.909 80 14.013 80H110.013C111.604 80 113.13 80.6321 114.256 81.7574C115.381 82.8826 116.013 84.4087 116.013 86C116.013 87.5913 115.381 89.1174 114.256 90.2426C113.13 91.3679 111.604 92 110.013 92H28.013V98C28.013 99.104 28.909 100 30.013 100H98.013C99.6043 100 101.13 100.632 102.256 101.757C103.381 102.883 104.013 104.409 104.013 106C104.013 107.591 103.381 109.117 102.256 110.243C101.13 111.368 99.6043 112 98.013 112H30.013C26.2999 112 22.739 110.525 20.1135 107.899C17.488 105.274 16.013 101.713 16.013 98V92H14.013C10.2999 92 6.73899 90.525 4.11348 87.8995C1.48797 85.274 0.0129724 81.713 0.0129724 78ZM82.253 32.24C82.8425 31.6907 83.3153 31.0283 83.6432 30.2923C83.9712 29.5563 84.1475 28.7618 84.1617 27.9562C84.1759 27.1506 84.0277 26.3503 83.726 25.6032C83.4242 24.8561 82.975 24.1774 82.4053 23.6077C81.8355 23.0379 81.1569 22.5888 80.4098 22.287C79.6626 21.9852 78.8624 21.8371 78.0568 21.8513C77.2512 21.8655 76.4567 22.0418 75.7207 22.3698C74.9847 22.6977 74.3223 23.1705 73.773 23.76L60.013 37.52L54.253 31.76C53.7037 31.1705 53.0413 30.6977 52.3053 30.3698C51.5693 30.0418 50.7748 29.8655 49.9692 29.8513C49.1635 29.8371 48.3633 29.9852 47.6162 30.287C46.8691 30.5888 46.1904 31.0379 45.6207 31.6077C45.0509 32.1774 44.6018 32.8561 44.3 33.6032C43.9982 34.3503 43.85 35.1506 43.8642 35.9562C43.8785 36.7618 44.0548 37.5563 44.3827 38.2923C44.7107 39.0283 45.1835 39.6907 45.773 40.24L55.773 50.24C56.898 51.3636 58.423 51.9947 60.013 51.9947C61.603 51.9947 63.128 51.3636 64.253 50.24L82.253 32.24Z" fill="#999999"/>
</svg>
