<svg width="120" height="103" viewBox="0 0 120 103" fill="none" xmlns="http://www.w3.org/2000/svg">
<path d="M117.896 56.9472L97.6017 6.21442C96.8715 4.37777 95.6058 2.80312 93.9692 1.69492C92.3326 0.586734 90.4006 -0.00379554 88.4241 1.83578e-05H72.8465L75.2785 26.016H92.5585L59.9185 53.0752L27.2785 26.016H44.5585L46.9905 1.83578e-05H31.4129C27.3681 1.83578e-05 23.7329 2.45762 22.2353 6.21442L1.94094 56.9472C0.09841 61.5595 -0.446075 66.5882 0.366536 71.488L4.14254 94.1376C4.52595 96.4459 5.71605 98.5432 7.50098 100.056C9.2859 101.569 11.5498 102.4 13.8897 102.4H105.941C110.773 102.4 114.895 98.9056 115.688 94.1376L119.464 71.488C120.295 66.5893 119.753 61.5561 117.896 56.9472ZM104.456 84.768C104.235 86.1199 103.54 87.349 102.495 88.2345C101.45 89.1201 100.124 89.6042 98.7537 89.6H21.0833C19.7135 89.6042 18.3871 89.1201 17.342 88.2345C16.2969 87.349 15.6016 86.1199 15.3809 84.768L13.0449 70.7328C12.9052 69.9043 12.948 69.0553 13.1704 68.2451C13.3927 67.4349 13.7892 66.683 14.3322 66.0419C14.8752 65.4007 15.5516 64.8859 16.3142 64.5332C17.0768 64.1805 17.9072 63.9986 18.7473 64H101.096C104.667 64 107.387 67.2064 106.799 70.7328L104.456 84.768Z" fill="#999999"/>
</svg>
