<svg width="96" height="107" viewBox="0 0 96 107" fill="none" xmlns="http://www.w3.org/2000/svg">
<path d="M10.6667 106.667C7.73333 106.667 5.22311 105.623 3.136 103.536C1.04889 101.449 0.00355556 98.9369 0 96V21.3333C0 18.4 1.04533 15.8898 3.136 13.8027C5.22667 11.7156 7.73689 10.6702 10.6667 10.6667H33.0667C34.2222 7.46667 36.1564 4.88889 38.8693 2.93333C41.5822 0.977778 44.6258 0 48 0C51.3742 0 54.4196 0.977778 57.136 2.93333C59.8524 4.88889 61.7849 7.46667 62.9333 10.6667H85.3333C88.2667 10.6667 90.7787 11.712 92.8693 13.8027C94.96 15.8933 96.0036 18.4036 96 21.3333V96C96 98.9333 94.9564 101.445 92.8693 103.536C90.7822 105.627 88.2702 106.67 85.3333 106.667H10.6667ZM50.8693 16.1973C51.6231 15.4436 52 14.4889 52 13.3333C52 12.1778 51.6213 11.2231 50.864 10.4693C50.1067 9.71556 49.152 9.33689 48 9.33333C46.848 9.32978 45.8933 9.70845 45.136 10.4693C44.3787 11.2302 44 12.1849 44 13.3333C44 14.4818 44.3787 15.4382 45.136 16.2027C45.8933 16.9671 46.848 17.344 48 17.3333C49.152 17.3227 50.1084 16.944 50.8693 16.1973ZM24 85.3333H30.4C31.1111 85.3333 31.8009 85.1769 32.4693 84.864C33.1378 84.5511 33.6924 84.1742 34.1333 83.7333L64.5333 53.6L53.0667 42.1333L22.9333 72.2667C22.4 72.8 22 73.3991 21.7333 74.064C21.4667 74.7289 21.3333 75.4204 21.3333 76.1387V82.6667C21.3333 83.3778 21.6 84 22.1333 84.5333C22.6667 85.0667 23.2889 85.3333 24 85.3333ZM68.2667 49.8667L73.8667 44C74.4 43.4667 74.6667 42.8444 74.6667 42.1333C74.6667 41.4222 74.4 40.8 73.8667 40.2667L66.4 32.8C65.8667 32.2667 65.2444 32 64.5333 32C63.8222 32 63.2 32.2667 62.6667 32.8L56.8 38.4L68.2667 49.8667Z" fill="#999999"/>
</svg>
