<svg width="128" height="128" viewBox="0 0 128 128" fill="none" xmlns="http://www.w3.org/2000/svg">
<g clip-path="url(#clip0_222_88)">
<path fill-rule="evenodd" clip-rule="evenodd" d="M38.8571 9.14286V41.1429C38.8571 43.5677 39.8204 45.8932 41.535 47.6078C43.2496 49.3225 45.5752 50.2857 48 50.2857H57.1429V61.7143H27.4286C23.1851 61.7143 19.1154 63.4 16.1149 66.4006C13.1143 69.4012 11.4286 73.4708 11.4286 77.7143V91.4286H9.14286C6.71802 91.4286 4.3925 92.3918 2.67788 94.1065C0.963263 95.8211 0 98.1466 0 100.571L0 118.857C0 121.282 0.963263 123.608 2.67788 125.322C4.3925 127.037 6.71802 128 9.14286 128H27.4286C29.8534 128 32.1789 127.037 33.8935 125.322C35.6082 123.608 36.5714 121.282 36.5714 118.857V100.571C36.5714 98.1466 35.6082 95.8211 33.8935 94.1065C32.1789 92.3918 29.8534 91.4286 27.4286 91.4286H25.1429V77.7143C25.1429 77.1081 25.3837 76.5267 25.8123 76.098C26.241 75.6694 26.8224 75.4286 27.4286 75.4286H57.1429V91.4286H54.8571C52.4323 91.4286 50.1068 92.3918 48.3922 94.1065C46.6776 95.8211 45.7143 98.1466 45.7143 100.571V118.857C45.7143 121.282 46.6776 123.608 48.3922 125.322C50.1068 127.037 52.4323 128 54.8571 128H73.1429C75.5677 128 77.8932 127.037 79.6078 125.322C81.3225 123.608 82.2857 121.282 82.2857 118.857V100.571C82.2857 98.1466 81.3225 95.8211 79.6078 94.1065C77.8932 92.3918 75.5677 91.4286 73.1429 91.4286H70.8571V75.4286H100.571C101.178 75.4286 101.759 75.6694 102.188 76.098C102.616 76.5267 102.857 77.1081 102.857 77.7143V91.4286H100.571C98.1466 91.4286 95.8211 92.3918 94.1065 94.1065C92.3918 95.8211 91.4286 98.1466 91.4286 100.571V118.857C91.4286 121.282 92.3918 123.608 94.1065 125.322C95.8211 127.037 98.1466 128 100.571 128H118.857C121.282 128 123.608 127.037 125.322 125.322C127.037 123.608 128 121.282 128 118.857V100.571C128 98.1466 127.037 95.8211 125.322 94.1065C123.608 92.3918 121.282 91.4286 118.857 91.4286H116.571V77.7143C116.571 73.4708 114.886 69.4012 111.885 66.4006C108.885 63.4 104.815 61.7143 100.571 61.7143H70.8571V50.2857H80C82.4248 50.2857 84.7504 49.3225 86.465 47.6078C88.1796 45.8932 89.1429 43.5677 89.1429 41.1429V9.14286C89.1429 6.71802 88.1796 4.3925 86.465 2.67788C84.7504 0.963263 82.4248 0 80 0L48 0C45.5752 0 43.2496 0.963263 41.535 2.67788C39.8204 4.3925 38.8571 6.71802 38.8571 9.14286Z" fill="#999999"/>
</g>
<defs>
<clipPath id="clip0_222_88">
<rect width="128" height="128" fill="white"/>
</clipPath>
</defs>
</svg>
