<svg width="117" height="121" viewBox="0 0 117 121" fill="none" xmlns="http://www.w3.org/2000/svg">
<path fill-rule="evenodd" clip-rule="evenodd" d="M55.8556 11.4501H86.8956C93.6754 11.4406 100.218 13.9424 105.262 18.4728C110.306 23.0031 113.494 29.241 114.209 35.9829C114.925 42.7247 113.119 49.4928 109.138 54.9813C105.158 60.4697 99.2862 64.2895 92.6556 65.7038C91.3936 69.1829 89.1057 72.1972 86.0941 74.3483C83.0826 76.4994 79.4892 77.686 75.7889 77.7514C72.0886 77.8168 68.4555 76.7579 65.3698 74.7145C62.2841 72.6711 59.8911 69.7396 58.507 66.3072H27.467C24.2779 66.3038 21.1873 67.4118 18.7269 69.4408C16.2664 71.4698 14.59 74.2928 13.986 77.4242C13.3821 80.5556 13.8883 83.7996 15.4176 86.5981C16.9469 89.3966 19.4037 91.5746 22.3653 92.7575C23.8849 89.5436 26.3084 86.8423 29.3392 84.9842C32.37 83.1261 35.8768 82.1918 39.4304 82.2956C42.9839 82.3994 46.4301 83.5368 49.3474 85.5686C52.2646 87.6005 54.5262 90.4386 55.8556 93.7358H94.7402C94.4192 92.5851 94.0532 91.4475 93.643 90.3255C93.2292 89.2435 93.1001 88.0733 93.2682 86.927C93.4363 85.7808 93.8959 84.6969 94.603 83.7792C95.4391 82.7019 96.6136 81.9374 97.9371 81.609C99.2607 81.2806 100.656 81.4074 101.899 81.969C105.254 83.4318 108.409 86.0741 110.896 89.0821C113.401 92.1175 115.494 95.8478 116.473 99.761C116.654 100.487 116.654 101.247 116.473 101.974C115.428 105.902 113.523 109.55 110.896 112.652C108.409 115.67 105.254 118.312 101.899 119.775C100.656 120.336 99.2607 120.463 97.9371 120.135C96.6136 119.806 95.4391 119.042 94.603 117.964C93.8959 117.047 93.4363 115.963 93.2682 114.817C93.1001 113.67 93.2292 112.5 93.643 111.418C94.1324 110.12 94.5476 108.795 94.8865 107.45H55.8465C54.4608 110.879 52.0677 113.808 48.9831 115.849C45.8985 117.89 42.2675 118.948 38.5693 118.882C34.8712 118.817 31.2798 117.632 28.2693 115.483C25.2588 113.334 22.9707 110.323 21.707 106.847C15.0764 105.432 9.20453 101.613 5.22431 96.1241C1.24408 90.6357 -0.562418 83.8676 0.153351 77.1257C0.869121 70.3839 4.05644 64.146 9.10034 59.6156C14.1442 55.0852 20.6873 52.5835 27.467 52.593H58.507C59.8364 49.2958 62.0981 46.4576 65.0153 44.4258C67.9325 42.3939 71.3787 41.2565 74.9323 41.1527C78.4858 41.0489 81.9926 41.9832 85.0234 43.8413C88.0543 45.6994 90.4777 48.4007 91.9973 51.6147C94.9493 50.4238 97.3955 48.2439 98.9171 45.448C100.439 42.6521 100.941 39.4142 100.338 36.2887C99.7355 33.1632 98.0649 30.3444 95.6125 28.3151C93.1602 26.2857 90.0787 25.1719 86.8956 25.1644H55.8556C54.4925 28.5464 52.1494 31.4437 49.1272 33.484C46.1051 35.5243 42.542 36.6145 38.8956 36.6145C35.2492 36.6145 31.6861 35.5243 28.664 33.484C25.6418 31.4437 23.2987 28.5464 21.9356 25.1644H6.8956C5.07697 25.1644 3.33283 24.4419 2.04687 23.156C0.760903 21.87 0.0384559 20.1259 0.0384559 18.3072C0.0384559 16.4886 0.760903 14.7445 2.04687 13.4585C3.33283 12.1725 5.07697 11.4501 6.8956 11.4501H21.9356C23.2987 8.06806 25.6418 5.1708 28.664 3.13049C31.6861 1.09018 35.2492 0 38.8956 0C42.542 0 46.1051 1.09018 49.1272 3.13049C52.1494 5.1708 54.4925 8.06806 55.8556 11.4501Z" fill="#999999"/>
</svg>
