<svg width="96" height="112" viewBox="0 0 96 112" fill="none" xmlns="http://www.w3.org/2000/svg">
<path fill-rule="evenodd" clip-rule="evenodd" d="M88 40H8C3.6 40 0 43.6 0 48V64C0 68.4 3.6 72 8 72H88C92.4 72 96 68.4 96 64V48C96 43.6 92.4 40 88 40ZM16 64H8V48H16V64ZM32 64H24V48H32V64ZM48 64H40V48H48V64ZM64 64H56V48H64V64ZM88 0H8C3.6 0 0 3.6 0 8V24C0 28.4 3.6 32 8 32H88C92.4 32 96 28.4 96 24V8C96 3.6 92.4 0 88 0ZM16 24H8V8H16V24ZM32 24H24V8H32V24ZM48 24H40V8H48V24ZM64 24H56V8H64V24ZM88 16H80V8H88V16ZM88 80H8C3.6 80 0 83.6 0 88V104C0 108.4 3.6 112 8 112H88C92.4 112 96 108.4 96 104V88C96 83.6 92.4 80 88 80ZM16 104H8V88H16V104ZM32 104H24V88H32V104ZM48 104H40V88H48V104ZM64 104H56V88H64V104Z" fill="#999999"/>
</svg>
