<svg width="120" height="128" viewBox="0 0 120 128" fill="none" xmlns="http://www.w3.org/2000/svg">
<path d="M83.9993 64C83.6457 64 83.3066 64.1405 83.0565 64.3905C82.8065 64.6406 82.666 64.9797 82.666 65.3333V85.3333C82.666 86.7478 83.2279 88.1044 84.2281 89.1046C85.2283 90.1048 86.5849 90.6667 87.9993 90.6667H90.666C94.9095 90.6667 98.9791 88.981 101.98 85.9804C104.98 82.9798 106.666 78.9101 106.666 74.6667V65.3333C106.666 64.9797 106.526 64.6406 106.275 64.3905C106.025 64.1405 105.686 64 105.333 64H83.9993Z" fill="#999999"/>
<path d="M66.6126 72C66.6126 69.8783 65.7697 67.8434 64.2694 66.3431C62.7691 64.8429 60.7343 64 58.6126 64C56.4909 64 54.456 64.8429 52.9557 66.3431C51.4554 67.8434 50.6126 69.8783 50.6126 72V112C50.62 112.275 50.5419 112.546 50.3891 112.775C50.2363 113.005 50.0163 113.181 49.7593 113.28C49.4956 113.359 49.2148 113.361 48.9501 113.285C48.6855 113.21 48.448 113.06 48.2659 112.853L41.4393 104.693C40.9264 104.077 40.2813 103.585 39.5518 103.252C38.8224 102.92 38.0274 102.756 37.2259 102.773H31.8926C30.9902 102.786 30.1059 103.028 29.3224 103.475C28.5389 103.923 27.8818 104.562 27.4126 105.333C26.9107 106.132 26.6445 107.057 26.6445 108C26.6445 108.943 26.9107 109.868 27.4126 110.667L36.5326 127.307C36.6519 127.513 36.8226 127.686 37.0282 127.807C37.2338 127.929 37.4672 127.995 37.7059 128H94.8259C95.1427 127.994 95.4477 127.879 95.6903 127.675C95.9329 127.472 96.0984 127.191 96.1593 126.88L98.6126 110.507C98.7611 109.394 98.5317 108.263 97.9611 107.296C97.3906 106.329 96.5119 105.582 95.4659 105.173L67.5193 95.1467C67.2566 95.0498 67.0294 94.8757 66.8675 94.6472C66.7057 94.4187 66.6168 94.1466 66.6126 93.8667V72ZM119.999 10.6667C119.999 7.83769 118.875 5.12458 116.875 3.12419C114.875 1.12381 112.162 0 109.333 0L93.3326 0C90.5036 0 87.7905 1.12381 85.7901 3.12419C83.7897 5.12458 82.6659 7.83769 82.6659 10.6667V45.3333C82.6659 48.1623 83.7897 50.8754 85.7901 52.8758C87.7905 54.8762 90.5036 56 93.3326 56H109.333C112.162 56 114.875 54.8762 116.875 52.8758C118.875 50.8754 119.999 48.1623 119.999 45.3333V10.6667ZM90.6659 12C90.6659 11.6464 90.8064 11.3072 91.0564 11.0572C91.3065 10.8071 91.6456 10.6667 91.9993 10.6667H110.666C111.02 10.6667 111.359 10.8071 111.609 11.0572C111.859 11.3072 111.999 11.6464 111.999 12V41.3333C111.999 41.687 111.859 42.0261 111.609 42.2761C111.359 42.5262 111.02 42.6667 110.666 42.6667H91.9993C91.6456 42.6667 91.3065 42.5262 91.0564 42.2761C90.8064 42.0261 90.6659 41.687 90.6659 41.3333V12Z" fill="#999999"/>
<path d="M34.6667 90.6667C36.0812 90.6667 37.4377 90.1048 38.4379 89.1046C39.4381 88.1044 40 86.7478 40 85.3333C40 83.9188 39.4381 82.5623 38.4379 81.5621C37.4377 80.5619 36.0812 80 34.6667 80H26.6667C25.9594 80 25.2811 79.7191 24.781 79.219C24.281 78.7189 24 78.0406 24 77.3333V29.3333C24 28.6261 24.281 27.9478 24.781 27.4477C25.2811 26.9476 25.9594 26.6667 26.6667 26.6667H66.6667C68.0812 26.6667 69.4377 26.1048 70.4379 25.1046C71.4381 24.1044 72 22.7478 72 21.3333C72 19.9188 71.4381 18.5623 70.4379 17.5621C69.4377 16.5619 68.0812 16 66.6667 16H16C11.7565 16 7.68687 17.6857 4.68629 20.6863C1.68571 23.6869 0 27.7565 0 32V74.6667C0 78.9101 1.68571 82.9798 4.68629 85.9804C7.68687 88.981 11.7565 90.6667 16 90.6667H34.6667Z" fill="#999999"/>
</svg>
